# xmcd
#
# Track frame offsets:
#	150
#	22947
#	44119
#	70861
#	87791
#	112601
#	130082
#	155481
#	169248
#	190106
#	217823
#	242357
#	267094
#	296576
#	315164
#	332201
#
# Disc length: 4776 seconds
#
# Revision: 0
# Processed by: cddbd v1.5.2PL0 Copyright (c) Steve Scherf et al.
# Submitted via: EasyCDDAExtractor 8.2.3.1
#
DISCID=cf12a610
DTITLE=Various Artist - Whiskey, Bikers and The Blues  "Harley-3"
DYEAR=2003
DGENRE=Blues
TTITLE0=SLOLEAK - White Lines
TTITLE1=COLIN JAMES - Saviour
TTITLE2=GUITAR PETE - Gasoline
TTITLE3=CANNED HEAT - Too Much Giddyup
TTITLE4=POPA CHUBBY - White Devil
TTITLE5=BIG MIKE GRIFFIN - Harley Blues
TTITLE6=PAUL BLACK - Honeymoon Blues
TTITLE7=Dr.FEELGOOD - The Walk
TTITLE8=ZZ TOP - Fuzzbox Voodoo
TTITLE9=GEORGE THOROGOOD - Killer's Blues
TTITLE10=JIMMY THACKERY - Write If You Find Love
TTITLE11=DAVID GOGO - Halfway to Memphis
TTITLE12=CRAIG ERICKSON - The Loneliest Hour
TTITLE13=The POUNDERS - Busted
TTITLE14=OMAR and The HOWLERS - Too Many People Talkin'
TTITLE15=RED ROCK ROOSTERS - Dutch Flowers
EXTD=
EXTT0=
EXTT1=
EXTT2=
EXTT3=
EXTT4=
EXTT5=
EXTT6=
EXTT7=
EXTT8=
EXTT9=
EXTT10=
EXTT11=
EXTT12=
EXTT13=
EXTT14=
EXTT15=
PLAYORDER=
